<svg xmlns="http://www.w3.org/2000/svg" xmlns:xlink="http://www.w3.org/1999/xlink" width="600" zoomAndPan="magnify" viewBox="0 0 450 225" height="300" preserveAspectRatio="xMidYMid meet" version="1.0"><defs><g/><clipPath id="7ea684fdb4"><path d="M 142 97 L 174 97 L 174 128 L 142 128 Z M 142 97 " clip-rule="nonzero"/></clipPath><clipPath id="f500299b29"><path d="M 136.6875 111.84375 L 158.539062 91.289062 L 179.097656 113.136719 L 157.246094 133.695312 Z M 136.6875 111.84375 " clip-rule="nonzero"/></clipPath><clipPath id="747fb832f3"><path d="M 136.6875 111.84375 L 158.539062 91.289062 L 179.097656 113.136719 L 157.246094 133.695312 Z M 136.6875 111.84375 " clip-rule="nonzero"/></clipPath><clipPath id="4ccf45b12b"><path d="M 145 99 L 172 99 L 172 126 L 145 126 Z M 145 99 " clip-rule="nonzero"/></clipPath><clipPath id="ceed3fe31d"><path d="M 136.6875 111.84375 L 158.539062 91.289062 L 179.097656 113.136719 L 157.246094 133.695312 Z M 136.6875 111.84375 " clip-rule="nonzero"/></clipPath><clipPath id="23e9ebb06e"><path d="M 136.6875 111.84375 L 158.539062 91.289062 L 179.097656 113.136719 L 157.246094 133.695312 Z M 136.6875 111.84375 " clip-rule="nonzero"/></clipPath><clipPath id="b121127e4e"><path d="M 149 103 L 168 103 L 168 122 L 149 122 Z M 149 103 " clip-rule="nonzero"/></clipPath><clipPath id="48af430007"><path d="M 136.6875 111.84375 L 158.539062 91.289062 L 179.097656 113.136719 L 157.246094 133.695312 Z M 136.6875 111.84375 " clip-rule="nonzero"/></clipPath><clipPath id="e55f6c4814"><path d="M 136.6875 111.84375 L 158.539062 91.289062 L 179.097656 113.136719 L 157.246094 133.695312 Z M 136.6875 111.84375 " clip-rule="nonzero"/></clipPath><clipPath id="305bc6385e"><path d="M 145 111 L 172 111 L 172 114 L 145 114 Z M 145 111 " clip-rule="nonzero"/></clipPath><clipPath id="b12219b34f"><path d="M 136.6875 111.84375 L 158.539062 91.289062 L 179.097656 113.136719 L 157.246094 133.695312 Z M 136.6875 111.84375 " clip-rule="nonzero"/></clipPath><clipPath id="867ed893aa"><path d="M 136.6875 111.84375 L 158.539062 91.289062 L 179.097656 113.136719 L 157.246094 133.695312 Z M 136.6875 111.84375 " clip-rule="nonzero"/></clipPath><clipPath id="462e198811"><path d="M 148 103 L 168 103 L 168 122 L 148 122 Z M 148 103 " clip-rule="nonzero"/></clipPath><clipPath id="d49a3c29ed"><path d="M 136.6875 111.84375 L 158.539062 91.289062 L 179.097656 113.136719 L 157.246094 133.695312 Z M 136.6875 111.84375 " clip-rule="nonzero"/></clipPath><clipPath id="b5352c2ea7"><path d="M 136.6875 111.84375 L 158.539062 91.289062 L 179.097656 113.136719 L 157.246094 133.695312 Z M 136.6875 111.84375 " clip-rule="nonzero"/></clipPath><clipPath id="47d8a74e1a"><path d="M 157 99 L 159 99 L 159 126 L 157 126 Z M 157 99 " clip-rule="nonzero"/></clipPath><clipPath id="3dee03ff5a"><path d="M 136.6875 111.84375 L 158.539062 91.289062 L 179.097656 113.136719 L 157.246094 133.695312 Z M 136.6875 111.84375 " clip-rule="nonzero"/></clipPath><clipPath id="040afb2fe0"><path d="M 136.6875 111.84375 L 158.539062 91.289062 L 179.097656 113.136719 L 157.246094 133.695312 Z M 136.6875 111.84375 " clip-rule="nonzero"/></clipPath><clipPath id="ffd88e46a2"><path d="M 148 106 L 151 106 L 151 109 L 148 109 Z M 148 106 " clip-rule="nonzero"/></clipPath><clipPath id="a3629363e1"><path d="M 136.6875 111.84375 L 158.539062 91.289062 L 179.097656 113.136719 L 157.246094 133.695312 Z M 136.6875 111.84375 " clip-rule="nonzero"/></clipPath><clipPath id="d864650501"><path d="M 136.6875 111.84375 L 158.539062 91.289062 L 179.097656 113.136719 L 157.246094 133.695312 Z M 136.6875 111.84375 " clip-rule="nonzero"/></clipPath><clipPath id="b7a4b8adb1"><path d="M 150 113 L 154 113 L 154 117 L 150 117 Z M 150 113 " clip-rule="nonzero"/></clipPath><clipPath id="b36a65e509"><path d="M 136.6875 111.84375 L 158.539062 91.289062 L 179.097656 113.136719 L 157.246094 133.695312 Z M 136.6875 111.84375 " clip-rule="nonzero"/></clipPath><clipPath id="ee5fc8ae85"><path d="M 136.6875 111.84375 L 158.539062 91.289062 L 179.097656 113.136719 L 157.246094 133.695312 Z M 136.6875 111.84375 " clip-rule="nonzero"/></clipPath><clipPath id="3363d44d8c"><path d="M 155 104 L 158 104 L 158 107 L 155 107 Z M 155 104 " clip-rule="nonzero"/></clipPath><clipPath id="d0a125c8b7"><path d="M 136.6875 111.84375 L 158.539062 91.289062 L 179.097656 113.136719 L 157.246094 133.695312 Z M 136.6875 111.84375 " clip-rule="nonzero"/></clipPath><clipPath id="db15625928"><path d="M 136.6875 111.84375 L 158.539062 91.289062 L 179.097656 113.136719 L 157.246094 133.695312 Z M 136.6875 111.84375 " clip-rule="nonzero"/></clipPath><clipPath id="f0629d6ba5"><path d="M 160 104 L 163 104 L 163 107 L 160 107 Z M 160 104 " clip-rule="nonzero"/></clipPath><clipPath id="dc93f3096a"><path d="M 136.6875 111.84375 L 158.539062 91.289062 L 179.097656 113.136719 L 157.246094 133.695312 Z M 136.6875 111.84375 " clip-rule="nonzero"/></clipPath><clipPath id="05ed082370"><path d="M 136.6875 111.84375 L 158.539062 91.289062 L 179.097656 113.136719 L 157.246094 133.695312 Z M 136.6875 111.84375 " clip-rule="nonzero"/></clipPath><clipPath id="c2d8abe88d"><path d="M 164 114 L 168 114 L 168 117 L 164 117 Z M 164 114 " clip-rule="nonzero"/></clipPath><clipPath id="26deea0236"><path d="M 136.6875 111.84375 L 158.539062 91.289062 L 179.097656 113.136719 L 157.246094 133.695312 Z M 136.6875 111.84375 " clip-rule="nonzero"/></clipPath><clipPath id="4e92dcfc96"><path d="M 136.6875 111.84375 L 158.539062 91.289062 L 179.097656 113.136719 L 157.246094 133.695312 Z M 136.6875 111.84375 " clip-rule="nonzero"/></clipPath><clipPath id="06d412f5db"><path d="M 159 121 L 162 121 L 162 124 L 159 124 Z M 159 121 " clip-rule="nonzero"/></clipPath><clipPath id="b75d31aae2"><path d="M 136.6875 111.84375 L 158.539062 91.289062 L 179.097656 113.136719 L 157.246094 133.695312 Z M 136.6875 111.84375 " clip-rule="nonzero"/></clipPath><clipPath id="f6b11e7b96"><path d="M 136.6875 111.84375 L 158.539062 91.289062 L 179.097656 113.136719 L 157.246094 133.695312 Z M 136.6875 111.84375 " clip-rule="nonzero"/></clipPath><clipPath id="4d4ed92f43"><path d="M 154 117 L 157 117 L 157 120 L 154 120 Z M 154 117 " clip-rule="nonzero"/></clipPath><clipPath id="0319336552"><path d="M 136.6875 111.84375 L 158.539062 91.289062 L 179.097656 113.136719 L 157.246094 133.695312 Z M 136.6875 111.84375 " clip-rule="nonzero"/></clipPath><clipPath id="9e66343dee"><path d="M 136.6875 111.84375 L 158.539062 91.289062 L 179.097656 113.136719 L 157.246094 133.695312 Z M 136.6875 111.84375 " clip-rule="nonzero"/></clipPath><clipPath id="a267e2da82"><path d="M 163 108 L 166 108 L 166 111 L 163 111 Z M 163 108 " clip-rule="nonzero"/></clipPath><clipPath id="4b7d22ce43"><path d="M 136.6875 111.84375 L 158.539062 91.289062 L 179.097656 113.136719 L 157.246094 133.695312 Z M 136.6875 111.84375 " clip-rule="nonzero"/></clipPath><clipPath id="fb43199a6f"><path d="M 136.6875 111.84375 L 158.539062 91.289062 L 179.097656 113.136719 L 157.246094 133.695312 Z M 136.6875 111.84375 " clip-rule="nonzero"/></clipPath><clipPath id="111a05d389"><path d="M 149 109 L 152 109 L 152 111 L 149 111 Z M 149 109 " clip-rule="nonzero"/></clipPath><clipPath id="de1585559e"><path d="M 136.6875 111.84375 L 158.539062 91.289062 L 179.097656 113.136719 L 157.246094 133.695312 Z M 136.6875 111.84375 " clip-rule="nonzero"/></clipPath><clipPath id="010563fd2c"><path d="M 136.6875 111.84375 L 158.539062 91.289062 L 179.097656 113.136719 L 157.246094 133.695312 Z M 136.6875 111.84375 " clip-rule="nonzero"/></clipPath><clipPath id="c57683abd5"><path d="M 149 116 L 150 116 L 150 119 L 149 119 Z M 149 116 " clip-rule="nonzero"/></clipPath><clipPath id="873c0883fa"><path d="M 136.6875 111.84375 L 158.539062 91.289062 L 179.097656 113.136719 L 157.246094 133.695312 Z M 136.6875 111.84375 " clip-rule="nonzero"/></clipPath><clipPath id="a3d7acb8bc"><path d="M 136.6875 111.84375 L 158.539062 91.289062 L 179.097656 113.136719 L 157.246094 133.695312 Z M 136.6875 111.84375 " clip-rule="nonzero"/></clipPath><clipPath id="aa29135a7b"><path d="M 151 119 L 153 119 L 153 122 L 151 122 Z M 151 119 " clip-rule="nonzero"/></clipPath><clipPath id="df56b50da9"><path d="M 136.6875 111.84375 L 158.539062 91.289062 L 179.097656 113.136719 L 157.246094 133.695312 Z M 136.6875 111.84375 " clip-rule="nonzero"/></clipPath><clipPath id="12cc704701"><path d="M 136.6875 111.84375 L 158.539062 91.289062 L 179.097656 113.136719 L 157.246094 133.695312 Z M 136.6875 111.84375 " clip-rule="nonzero"/></clipPath><clipPath id="99a2c35857"><path d="M 162 120 L 166 120 L 166 122 L 162 122 Z M 162 120 " clip-rule="nonzero"/></clipPath><clipPath id="a8431c6244"><path d="M 136.6875 111.84375 L 158.539062 91.289062 L 179.097656 113.136719 L 157.246094 133.695312 Z M 136.6875 111.84375 " clip-rule="nonzero"/></clipPath><clipPath id="bf26aea9f4"><path d="M 136.6875 111.84375 L 158.539062 91.289062 L 179.097656 113.136719 L 157.246094 133.695312 Z M 136.6875 111.84375 " clip-rule="nonzero"/></clipPath><clipPath id="0159597574"><path d="M 165 117 L 168 117 L 168 120 L 165 120 Z M 165 117 " clip-rule="nonzero"/></clipPath><clipPath id="c115c6eb3f"><path d="M 136.6875 111.84375 L 158.539062 91.289062 L 179.097656 113.136719 L 157.246094 133.695312 Z M 136.6875 111.84375 " clip-rule="nonzero"/></clipPath><clipPath id="bd8c120cee"><path d="M 136.6875 111.84375 L 158.539062 91.289062 L 179.097656 113.136719 L 157.246094 133.695312 Z M 136.6875 111.84375 " clip-rule="nonzero"/></clipPath><clipPath id="3f4eb062f8"><path d="M 161 110 L 164 110 L 164 112 L 161 112 Z M 161 110 " clip-rule="nonzero"/></clipPath><clipPath id="012bbbc553"><path d="M 136.6875 111.84375 L 158.539062 91.289062 L 179.097656 113.136719 L 157.246094 133.695312 Z M 136.6875 111.84375 " clip-rule="nonzero"/></clipPath><clipPath id="26602c7d73"><path d="M 136.6875 111.84375 L 158.539062 91.289062 L 179.097656 113.136719 L 157.246094 133.695312 Z M 136.6875 111.84375 " clip-rule="nonzero"/></clipPath><clipPath id="a455bf299f"><path d="M 159 101 L 161 101 L 161 104 L 159 104 Z M 159 101 " clip-rule="nonzero"/></clipPath><clipPath id="ea0a3ea08c"><path d="M 136.6875 111.84375 L 158.539062 91.289062 L 179.097656 113.136719 L 157.246094 133.695312 Z M 136.6875 111.84375 " clip-rule="nonzero"/></clipPath><clipPath id="6ea44f2fba"><path d="M 136.6875 111.84375 L 158.539062 91.289062 L 179.097656 113.136719 L 157.246094 133.695312 Z M 136.6875 111.84375 " clip-rule="nonzero"/></clipPath><clipPath id="7da40cd523"><path d="M 154 106 L 157 106 L 157 109 L 154 109 Z M 154 106 " clip-rule="nonzero"/></clipPath><clipPath id="0bd8da9785"><path d="M 136.6875 111.84375 L 158.539062 91.289062 L 179.097656 113.136719 L 157.246094 133.695312 Z M 136.6875 111.84375 " clip-rule="nonzero"/></clipPath><clipPath id="1ae94a3108"><path d="M 136.6875 111.84375 L 158.539062 91.289062 L 179.097656 113.136719 L 157.246094 133.695312 Z M 136.6875 111.84375 " clip-rule="nonzero"/></clipPath><clipPath id="d7850fb1fb"><path d="M 158 117 L 163 117 L 163 121 L 158 121 Z M 158 117 " clip-rule="nonzero"/></clipPath><clipPath id="3af99e9670"><path d="M 136.6875 111.84375 L 158.539062 91.289062 L 179.097656 113.136719 L 157.246094 133.695312 Z M 136.6875 111.84375 " clip-rule="nonzero"/></clipPath><clipPath id="8b4ef5bc12"><path d="M 136.6875 111.84375 L 158.539062 91.289062 L 179.097656 113.136719 L 157.246094 133.695312 Z M 136.6875 111.84375 " clip-rule="nonzero"/></clipPath><clipPath id="2f8c00da1a"><path d="M 153 120 L 157 120 L 157 124 L 153 124 Z M 153 120 " clip-rule="nonzero"/></clipPath><clipPath id="61635f80f4"><path d="M 136.6875 111.84375 L 158.539062 91.289062 L 179.097656 113.136719 L 157.246094 133.695312 Z M 136.6875 111.84375 " clip-rule="nonzero"/></clipPath><clipPath id="301ff07a01"><path d="M 136.6875 111.84375 L 158.539062 91.289062 L 179.097656 113.136719 L 157.246094 133.695312 Z M 136.6875 111.84375 " clip-rule="nonzero"/></clipPath><clipPath id="7b6b3f9e25"><path d="M 151 102 L 156 102 L 156 106 L 151 106 Z M 151 102 " clip-rule="nonzero"/></clipPath><clipPath id="6d95b3674c"><path d="M 136.6875 111.84375 L 158.539062 91.289062 L 179.097656 113.136719 L 157.246094 133.695312 Z M 136.6875 111.84375 " clip-rule="nonzero"/></clipPath><clipPath id="950179475a"><path d="M 136.6875 111.84375 L 158.539062 91.289062 L 179.097656 113.136719 L 157.246094 133.695312 Z M 136.6875 111.84375 " clip-rule="nonzero"/></clipPath><clipPath id="5461c0aab4"><path d="M 152 109 L 155 109 L 155 112 L 152 112 Z M 152 109 " clip-rule="nonzero"/></clipPath><clipPath id="6689b200c7"><path d="M 136.6875 111.84375 L 158.539062 91.289062 L 179.097656 113.136719 L 157.246094 133.695312 Z M 136.6875 111.84375 " clip-rule="nonzero"/></clipPath><clipPath id="5a1d28acd0"><path d="M 136.6875 111.84375 L 158.539062 91.289062 L 179.097656 113.136719 L 157.246094 133.695312 Z M 136.6875 111.84375 " clip-rule="nonzero"/></clipPath><clipPath id="8ddd7573bc"><path d="M 146 113 L 150 113 L 150 116 L 146 116 Z M 146 113 " clip-rule="nonzero"/></clipPath><clipPath id="5ba27a417f"><path d="M 136.6875 111.84375 L 158.539062 91.289062 L 179.097656 113.136719 L 157.246094 133.695312 Z M 136.6875 111.84375 " clip-rule="nonzero"/></clipPath><clipPath id="ee498b3e12"><path d="M 136.6875 111.84375 L 158.539062 91.289062 L 179.097656 113.136719 L 157.246094 133.695312 Z M 136.6875 111.84375 " clip-rule="nonzero"/></clipPath><clipPath id="8e911e9c80"><path d="M 161 113 L 164 113 L 164 116 L 161 116 Z M 161 113 " clip-rule="nonzero"/></clipPath><clipPath id="2b1d91613e"><path d="M 136.6875 111.84375 L 158.539062 91.289062 L 179.097656 113.136719 L 157.246094 133.695312 Z M 136.6875 111.84375 " clip-rule="nonzero"/></clipPath><clipPath id="e0f36d8a93"><path d="M 136.6875 111.84375 L 158.539062 91.289062 L 179.097656 113.136719 L 157.246094 133.695312 Z M 136.6875 111.84375 " clip-rule="nonzero"/></clipPath><clipPath id="d533c0cd3e"><path d="M 166 109 L 169 109 L 169 112 L 166 112 Z M 166 109 " clip-rule="nonzero"/></clipPath><clipPath id="ba005f6eb9"><path d="M 136.6875 111.84375 L 158.539062 91.289062 L 179.097656 113.136719 L 157.246094 133.695312 Z M 136.6875 111.84375 " clip-rule="nonzero"/></clipPath><clipPath id="95f01f785e"><path d="M 136.6875 111.84375 L 158.539062 91.289062 L 179.097656 113.136719 L 157.246094 133.695312 Z M 136.6875 111.84375 " clip-rule="nonzero"/></clipPath><clipPath id="23f2ec7d8d"><path d="M 163 102 L 166 102 L 166 106 L 163 106 Z M 163 102 " clip-rule="nonzero"/></clipPath><clipPath id="bbed0bb0d5"><path d="M 136.6875 111.84375 L 158.539062 91.289062 L 179.097656 113.136719 L 157.246094 133.695312 Z M 136.6875 111.84375 " clip-rule="nonzero"/></clipPath><clipPath id="129d07bbb5"><path d="M 136.6875 111.84375 L 158.539062 91.289062 L 179.097656 113.136719 L 157.246094 133.695312 Z M 136.6875 111.84375 " clip-rule="nonzero"/></clipPath><clipPath id="c03fd53c02"><path d="M 166 105 L 168 105 L 168 109 L 166 109 Z M 166 105 " clip-rule="nonzero"/></clipPath><clipPath id="aa444e44b1"><path d="M 136.6875 111.84375 L 158.539062 91.289062 L 179.097656 113.136719 L 157.246094 133.695312 Z M 136.6875 111.84375 " clip-rule="nonzero"/></clipPath><clipPath id="7dd08badd0"><path d="M 136.6875 111.84375 L 158.539062 91.289062 L 179.097656 113.136719 L 157.246094 133.695312 Z M 136.6875 111.84375 " clip-rule="nonzero"/></clipPath><clipPath id="2f7e16f1a7"><path d="M 167 114 L 169 114 L 169 117 L 167 117 Z M 167 114 " clip-rule="nonzero"/></clipPath><clipPath id="8ceeafbf54"><path d="M 136.6875 111.84375 L 158.539062 91.289062 L 179.097656 113.136719 L 157.246094 133.695312 Z M 136.6875 111.84375 " clip-rule="nonzero"/></clipPath><clipPath id="ab0a5a8819"><path d="M 136.6875 111.84375 L 158.539062 91.289062 L 179.097656 113.136719 L 157.246094 133.695312 Z M 136.6875 111.84375 " clip-rule="nonzero"/></clipPath></defs><g clip-path="url(#7ea684fdb4)"><g clip-path="url(#f500299b29)"><g clip-path="url(#747fb832f3)"><path fill="#ffffff" d="M 168.550781 123.554688 C 162.453125 129.289062 152.828125 128.996094 147.09375 122.898438 C 141.355469 116.800781 141.652344 107.175781 147.746094 101.441406 C 153.84375 95.703125 163.472656 96 169.207031 102.09375 C 174.941406 108.191406 174.648438 117.820312 168.550781 123.554688 Z M 148.21875 101.941406 C 142.398438 107.417969 142.121094 116.605469 147.59375 122.425781 C 153.070312 128.246094 162.257812 128.527344 168.078125 123.050781 C 173.898438 117.578125 174.179688 108.386719 168.703125 102.566406 C 163.230469 96.75 154.039062 96.46875 148.21875 101.941406 Z M 148.21875 101.941406 " fill-opacity="1" fill-rule="nonzero"/></g></g></g><g clip-path="url(#4ccf45b12b)"><g clip-path="url(#ceed3fe31d)"><g clip-path="url(#23e9ebb06e)"><path fill="#ffffff" d="M 166.964844 121.867188 C 161.796875 126.726562 153.640625 126.476562 148.78125 121.3125 C 143.921875 116.144531 144.167969 107.988281 149.335938 103.128906 C 154.5 98.269531 162.65625 98.519531 167.519531 103.683594 C 172.378906 108.847656 172.128906 117.007812 166.964844 121.867188 Z M 149.808594 103.632812 C 144.917969 108.230469 144.683594 115.949219 149.28125 120.839844 C 153.882812 125.726562 161.601562 125.960938 166.488281 121.363281 C 171.378906 116.765625 171.613281 109.046875 167.015625 104.15625 C 162.417969 99.269531 154.699219 99.03125 149.808594 103.632812 Z M 149.808594 103.632812 " fill-opacity="1" fill-rule="nonzero"/></g></g></g><g clip-path="url(#b121127e4e)"><g clip-path="url(#48af430007)"><g clip-path="url(#e55f6c4814)"><path fill="#ffffff" d="M 166.964844 121.867188 C 166.824219 121.996094 166.605469 121.988281 166.476562 121.851562 L 149.320312 103.617188 C 149.191406 103.476562 149.195312 103.257812 149.335938 103.128906 C 149.472656 103 149.691406 103.003906 149.824219 103.144531 L 166.976562 121.378906 C 167.109375 121.515625 167.101562 121.734375 166.964844 121.867188 Z M 166.964844 121.867188 " fill-opacity="1" fill-rule="nonzero"/></g></g></g><g clip-path="url(#305bc6385e)"><g clip-path="url(#b12219b34f)"><g clip-path="url(#867ed893aa)"><path fill="#ffffff" d="M 170.898438 113.128906 C 170.832031 113.191406 170.746094 113.226562 170.652344 113.222656 L 145.625 112.460938 C 145.4375 112.453125 145.285156 112.296875 145.292969 112.105469 C 145.296875 111.914062 145.457031 111.765625 145.648438 111.769531 L 170.671875 112.535156 C 170.863281 112.539062 171.011719 112.699219 171.007812 112.890625 C 171.003906 112.984375 170.960938 113.070312 170.898438 113.128906 Z M 170.898438 113.128906 " fill-opacity="1" fill-rule="nonzero"/></g></g></g><g clip-path="url(#462e198811)"><g clip-path="url(#d49a3c29ed)"><g clip-path="url(#b5352c2ea7)"><path fill="#ffffff" d="M 167.503906 104.171875 L 149.269531 121.324219 C 149.128906 121.457031 148.910156 121.449219 148.78125 121.3125 C 148.648438 121.171875 148.65625 120.953125 148.796875 120.824219 L 167.03125 103.667969 C 167.167969 103.539062 167.386719 103.546875 167.519531 103.683594 C 167.648438 103.824219 167.640625 104.039062 167.503906 104.171875 Z M 167.503906 104.171875 " fill-opacity="1" fill-rule="nonzero"/></g></g></g><g clip-path="url(#47d8a74e1a)"><g clip-path="url(#3dee03ff5a)"><g clip-path="url(#040afb2fe0)"><path fill="#ffffff" d="M 158.003906 125.261719 C 157.9375 125.320312 157.851562 125.355469 157.757812 125.355469 C 157.566406 125.347656 157.417969 125.1875 157.421875 125 L 158.1875 99.976562 C 158.191406 99.785156 158.351562 99.632812 158.542969 99.640625 C 158.730469 99.644531 158.882812 99.804688 158.875 99.996094 L 158.113281 125.019531 C 158.109375 125.113281 158.066406 125.199219 158.003906 125.261719 Z M 158.003906 125.261719 " fill-opacity="1" fill-rule="nonzero"/></g></g></g><g clip-path="url(#ffd88e46a2)"><g clip-path="url(#a3629363e1)"><g clip-path="url(#d864650501)"><path fill="#ffffff" d="M 150.546875 108.546875 C 150.09375 108.976562 149.34375 108.921875 148.875 108.425781 C 148.410156 107.929688 148.398438 107.175781 148.855469 106.75 C 149.308594 106.324219 150.058594 106.378906 150.523438 106.875 C 150.992188 107.371094 151 108.121094 150.546875 108.546875 Z M 149.328125 107.253906 C 149.152344 107.417969 149.175781 107.738281 149.378906 107.953125 C 149.582031 108.167969 149.898438 108.210938 150.074219 108.046875 C 150.246094 107.882812 150.222656 107.5625 150.023438 107.347656 C 149.820312 107.132812 149.5 107.089844 149.328125 107.253906 Z M 149.328125 107.253906 " fill-opacity="1" fill-rule="nonzero"/></g></g></g><g clip-path="url(#b7a4b8adb1)"><g clip-path="url(#b36a65e509)"><g clip-path="url(#ee5fc8ae85)"><path fill="#ffffff" d="M 152.71875 115.796875 C 152.265625 116.226562 151.515625 116.167969 151.046875 115.671875 C 150.582031 115.175781 150.570312 114.425781 151.027344 114 C 151.480469 113.570312 152.230469 113.625 152.695312 114.121094 C 153.164062 114.617188 153.171875 115.371094 152.71875 115.796875 Z M 151.5 114.5 C 151.324219 114.664062 151.347656 114.984375 151.550781 115.199219 C 151.753906 115.414062 152.070312 115.457031 152.246094 115.292969 C 152.421875 115.128906 152.398438 114.808594 152.195312 114.59375 C 151.992188 114.378906 151.671875 114.335938 151.5 114.5 Z M 151.5 114.5 " fill-opacity="1" fill-rule="nonzero"/></g></g></g><g clip-path="url(#3363d44d8c)"><g clip-path="url(#d0a125c8b7)"><g clip-path="url(#db15625928)"><path fill="#ffffff" d="M 157.054688 106.417969 C 156.597656 106.847656 155.851562 106.792969 155.382812 106.296875 C 154.917969 105.800781 154.90625 105.046875 155.363281 104.621094 C 155.816406 104.191406 156.566406 104.25 157.03125 104.746094 C 157.5 105.242188 157.507812 105.992188 157.054688 106.417969 Z M 155.835938 105.121094 C 155.660156 105.285156 155.683594 105.605469 155.886719 105.824219 C 156.089844 106.039062 156.40625 106.082031 156.582031 105.917969 C 156.753906 105.753906 156.730469 105.433594 156.527344 105.21875 C 156.328125 105.003906 156.007812 104.960938 155.835938 105.121094 Z M 155.835938 105.121094 " fill-opacity="1" fill-rule="nonzero"/></g></g></g><g clip-path="url(#f0629d6ba5)"><g clip-path="url(#dc93f3096a)"><g clip-path="url(#05ed082370)"><path fill="#ffffff" d="M 162.1875 106.378906 C 161.734375 106.804688 160.984375 106.75 160.515625 106.253906 C 160.050781 105.757812 160.039062 105.007812 160.496094 104.578125 C 160.949219 104.152344 161.699219 104.207031 162.164062 104.703125 C 162.632812 105.199219 162.640625 105.949219 162.1875 106.378906 Z M 160.96875 105.082031 C 160.792969 105.246094 160.816406 105.566406 161.019531 105.78125 C 161.222656 105.996094 161.539062 106.039062 161.714844 105.875 C 161.890625 105.710938 161.863281 105.390625 161.664062 105.175781 C 161.460938 104.960938 161.140625 104.917969 160.96875 105.082031 Z M 160.96875 105.082031 " fill-opacity="1" fill-rule="nonzero"/></g></g></g><g clip-path="url(#c2d8abe88d)"><g clip-path="url(#26deea0236)"><g clip-path="url(#4e92dcfc96)"><path fill="#ffffff" d="M 166.835938 116.273438 C 166.378906 116.699219 165.628906 116.644531 165.164062 116.148438 C 164.699219 115.652344 164.6875 114.902344 165.140625 114.472656 C 165.597656 114.046875 166.34375 114.101562 166.8125 114.597656 C 167.277344 115.09375 167.289062 115.84375 166.835938 116.273438 Z M 165.613281 114.976562 C 165.441406 115.140625 165.464844 115.460938 165.667969 115.675781 C 165.867188 115.890625 166.1875 115.933594 166.363281 115.769531 C 166.535156 115.605469 166.511719 115.285156 166.308594 115.070312 C 166.105469 114.855469 165.789062 114.8125 165.613281 114.976562 Z M 165.613281 114.976562 " fill-opacity="1" fill-rule="nonzero"/></g></g></g><g clip-path="url(#06d412f5db)"><g clip-path="url(#b75d31aae2)"><g clip-path="url(#f6b11e7b96)"><path fill="#ffffff" d="M 161.367188 123.359375 C 160.910156 123.785156 160.164062 123.730469 159.695312 123.234375 C 159.230469 122.738281 159.21875 121.988281 159.675781 121.558594 C 160.128906 121.132812 160.878906 121.1875 161.34375 121.683594 C 161.8125 122.179688 161.820312 122.929688 161.367188 123.359375 Z M 160.148438 122.0625 C 159.972656 122.226562 159.996094 122.546875 160.199219 122.761719 C 160.402344 122.976562 160.71875 123.019531 160.894531 122.855469 C 161.066406 122.691406 161.042969 122.371094 160.839844 122.15625 C 160.640625 121.941406 160.320312 121.898438 160.148438 122.0625 Z M 160.148438 122.0625 " fill-opacity="1" fill-rule="nonzero"/></g></g></g><g clip-path="url(#4d4ed92f43)"><g clip-path="url(#0319336552)"><g clip-path="url(#9e66343dee)"><path fill="#ffffff" d="M 156.285156 119.191406 C 155.828125 119.621094 155.078125 119.566406 154.613281 119.070312 C 154.144531 118.574219 154.136719 117.820312 154.589844 117.394531 C 155.046875 116.964844 155.792969 117.023438 156.261719 117.519531 C 156.726562 118.015625 156.738281 118.765625 156.285156 119.191406 Z M 155.0625 117.898438 C 154.890625 118.0625 154.914062 118.382812 155.117188 118.597656 C 155.316406 118.8125 155.636719 118.855469 155.8125 118.691406 C 155.984375 118.527344 155.960938 118.207031 155.757812 117.992188 C 155.554688 117.777344 155.238281 117.734375 155.0625 117.898438 Z M 155.0625 117.898438 " fill-opacity="1" fill-rule="nonzero"/></g></g></g><g clip-path="url(#a267e2da82)"><g clip-path="url(#4b7d22ce43)"><g clip-path="url(#fb43199a6f)"><path fill="#ffffff" d="M 165.496094 110.273438 C 165.039062 110.699219 164.292969 110.644531 163.824219 110.148438 C 163.359375 109.652344 163.347656 108.898438 163.800781 108.472656 C 164.257812 108.046875 165.007812 108.101562 165.472656 108.597656 C 165.9375 109.09375 165.949219 109.84375 165.496094 110.273438 Z M 164.273438 108.976562 C 164.101562 109.140625 164.125 109.460938 164.328125 109.675781 C 164.53125 109.890625 164.847656 109.933594 165.023438 109.769531 C 165.195312 109.605469 165.171875 109.285156 164.96875 109.070312 C 164.769531 108.855469 164.449219 108.8125 164.273438 108.976562 Z M 164.273438 108.976562 " fill-opacity="1" fill-rule="nonzero"/></g></g></g><g clip-path="url(#111a05d389)"><g clip-path="url(#de1585559e)"><g clip-path="url(#010563fd2c)"><path fill="#ffffff" d="M 151.445312 110.546875 C 151.394531 110.59375 151.328125 110.628906 151.25 110.636719 L 149.75 110.824219 C 149.5625 110.847656 149.390625 110.714844 149.367188 110.527344 C 149.34375 110.335938 149.476562 110.164062 149.664062 110.140625 L 151.164062 109.953125 C 151.355469 109.929688 151.527344 110.0625 151.550781 110.25 C 151.566406 110.363281 151.523438 110.472656 151.445312 110.546875 Z M 151.445312 110.546875 " fill-opacity="1" fill-rule="nonzero"/></g></g></g><g clip-path="url(#c57683abd5)"><g clip-path="url(#873c0883fa)"><g clip-path="url(#a3d7acb8bc)"><path fill="#ffffff" d="M 149.851562 118.550781 C 149.800781 118.601562 149.730469 118.632812 149.652344 118.640625 C 149.464844 118.664062 149.292969 118.527344 149.273438 118.335938 L 149.101562 116.765625 C 149.082031 116.574219 149.21875 116.40625 149.40625 116.382812 C 149.597656 116.363281 149.765625 116.5 149.789062 116.691406 L 149.960938 118.261719 C 149.972656 118.375 149.929688 118.480469 149.851562 118.550781 Z M 149.851562 118.550781 " fill-opacity="1" fill-rule="nonzero"/></g></g></g><g clip-path="url(#aa29135a7b)"><g clip-path="url(#df56b50da9)"><g clip-path="url(#12cc704701)"><path fill="#ffffff" d="M 152.828125 121.832031 C 152.808594 121.851562 152.785156 121.867188 152.761719 121.882812 C 152.59375 121.976562 152.382812 121.917969 152.289062 121.75 L 151.484375 120.320312 C 151.390625 120.15625 151.449219 119.945312 151.617188 119.851562 C 151.78125 119.757812 151.992188 119.816406 152.085938 119.980469 L 152.890625 121.414062 C 152.972656 121.554688 152.941406 121.726562 152.828125 121.832031 Z M 152.828125 121.832031 " fill-opacity="1" fill-rule="nonzero"/></g></g></g><g clip-path="url(#99a2c35857)"><g clip-path="url(#a8431c6244)"><g clip-path="url(#bf26aea9f4)"><path fill="#ffffff" d="M 165 121.664062 C 164.925781 121.730469 164.824219 121.769531 164.714844 121.753906 L 163.242188 121.546875 C 163.054688 121.519531 162.921875 121.347656 162.949219 121.15625 C 162.976562 120.96875 163.152344 120.835938 163.339844 120.863281 L 164.8125 121.070312 C 165 121.097656 165.132812 121.269531 165.105469 121.460938 C 165.09375 121.539062 165.054688 121.609375 165 121.664062 Z M 165 121.664062 " fill-opacity="1" fill-rule="nonzero"/></g></g></g><g clip-path="url(#0159597574)"><g clip-path="url(#c115c6eb3f)"><g clip-path="url(#bd8c120cee)"><path fill="#ffffff" d="M 166.960938 119.335938 C 166.953125 119.34375 166.945312 119.351562 166.933594 119.359375 C 166.785156 119.472656 166.566406 119.445312 166.449219 119.296875 L 165.4375 117.976562 C 165.320312 117.824219 165.347656 117.609375 165.5 117.492188 C 165.652344 117.375 165.867188 117.402344 165.984375 117.554688 L 166.996094 118.875 C 167.105469 119.015625 167.089844 119.214844 166.960938 119.335938 Z M 166.960938 119.335938 " fill-opacity="1" fill-rule="nonzero"/></g></g></g><g clip-path="url(#3f4eb062f8)"><g clip-path="url(#012bbbc553)"><g clip-path="url(#26602c7d73)"><path fill="#ffffff" d="M 163.242188 110.699219 C 163.214844 110.722656 163.1875 110.746094 163.15625 110.761719 L 161.789062 111.421875 C 161.617188 111.503906 161.410156 111.433594 161.328125 111.261719 C 161.246094 111.089844 161.316406 110.882812 161.488281 110.800781 L 162.855469 110.140625 C 163.027344 110.054688 163.234375 110.128906 163.316406 110.300781 C 163.382812 110.4375 163.347656 110.601562 163.242188 110.699219 Z M 163.242188 110.699219 " fill-opacity="1" fill-rule="nonzero"/></g></g></g><g clip-path="url(#a455bf299f)"><g clip-path="url(#ea0a3ea08c)"><g clip-path="url(#6ea44f2fba)"><path fill="#ffffff" d="M 160.328125 103.496094 C 160.242188 103.578125 160.117188 103.609375 159.996094 103.574219 C 159.8125 103.523438 159.707031 103.332031 159.761719 103.148438 L 160.1875 101.667969 C 160.238281 101.484375 160.429688 101.378906 160.613281 101.433594 C 160.796875 101.484375 160.902344 101.675781 160.847656 101.859375 L 160.421875 103.339844 C 160.40625 103.402344 160.371094 103.453125 160.328125 103.496094 Z M 160.328125 103.496094 " fill-opacity="1" fill-rule="nonzero"/></g></g></g><g clip-path="url(#7da40cd523)"><g clip-path="url(#0bd8da9785)"><g clip-path="url(#1ae94a3108)"><path fill="#ffffff" d="M 156.441406 108.488281 C 156.3125 108.609375 156.113281 108.613281 155.980469 108.496094 L 154.710938 107.386719 C 154.566406 107.261719 154.550781 107.046875 154.675781 106.902344 C 154.800781 106.757812 155.019531 106.742188 155.164062 106.867188 L 156.433594 107.976562 C 156.574219 108.101562 156.589844 108.320312 156.464844 108.460938 C 156.457031 108.472656 156.449219 108.480469 156.441406 108.488281 Z M 156.441406 108.488281 " fill-opacity="1" fill-rule="nonzero"/></g></g></g><g clip-path="url(#d7850fb1fb)"><g clip-path="url(#3af99e9670)"><g clip-path="url(#8b4ef5bc12)"><path fill="#ffffff" d="M 161.398438 120.597656 C 161.308594 120.679688 161.199219 120.742188 161.074219 120.773438 L 160.738281 120.851562 C 160.355469 120.941406 159.96875 120.703125 159.878906 120.320312 L 159.714844 119.621094 L 159.34375 119.710938 C 159.253906 119.730469 159.160156 119.714844 159.082031 119.667969 C 159.003906 119.617188 158.949219 119.542969 158.929688 119.453125 C 158.828125 119.03125 158.898438 118.601562 159.125 118.234375 C 159.351562 117.867188 159.707031 117.613281 160.128906 117.511719 C 160.546875 117.414062 160.980469 117.484375 161.347656 117.710938 C 161.710938 117.9375 161.96875 118.292969 162.066406 118.714844 C 162.109375 118.898438 161.996094 119.085938 161.808594 119.128906 L 161.4375 119.214844 L 161.601562 119.914062 C 161.664062 120.171875 161.578125 120.429688 161.398438 120.597656 Z M 159.585938 118.941406 L 159.890625 118.871094 C 159.980469 118.851562 160.074219 118.863281 160.152344 118.914062 C 160.230469 118.960938 160.285156 119.039062 160.308594 119.128906 L 160.550781 120.164062 C 160.554688 120.175781 160.566406 120.183594 160.578125 120.179688 L 160.914062 120.101562 C 160.925781 120.097656 160.933594 120.085938 160.929688 120.074219 L 160.6875 119.039062 C 160.644531 118.851562 160.757812 118.667969 160.945312 118.625 L 161.253906 118.550781 C 161.179688 118.449219 161.089844 118.363281 160.984375 118.296875 C 160.773438 118.167969 160.527344 118.128906 160.285156 118.183594 C 160.046875 118.242188 159.84375 118.386719 159.714844 118.597656 C 159.644531 118.703125 159.601562 118.820312 159.585938 118.941406 Z M 159.585938 118.941406 " fill-opacity="1" fill-rule="nonzero"/></g></g></g><g clip-path="url(#2f8c00da1a)"><g clip-path="url(#61635f80f4)"><g clip-path="url(#301ff07a01)"><path fill="#ffffff" d="M 156.261719 123.382812 C 156.175781 123.464844 156.0625 123.527344 155.9375 123.558594 L 155.601562 123.636719 C 155.417969 123.679688 155.226562 123.648438 155.0625 123.546875 C 154.902344 123.449219 154.789062 123.292969 154.746094 123.105469 L 154.582031 122.40625 L 154.207031 122.496094 C 154.023438 122.539062 153.835938 122.421875 153.792969 122.238281 C 153.695312 121.816406 153.765625 121.386719 153.992188 121.019531 C 154.21875 120.652344 154.574219 120.398438 154.992188 120.296875 C 155.414062 120.199219 155.84375 120.269531 156.210938 120.496094 C 156.578125 120.722656 156.835938 121.078125 156.933594 121.5 C 156.953125 121.585938 156.9375 121.679688 156.890625 121.757812 C 156.84375 121.835938 156.765625 121.890625 156.675781 121.914062 L 156.304688 122 L 156.46875 122.699219 C 156.527344 122.957031 156.441406 123.214844 156.261719 123.382812 Z M 154.449219 121.726562 L 154.757812 121.65625 C 154.945312 121.613281 155.128906 121.726562 155.171875 121.914062 L 155.417969 122.949219 C 155.417969 122.953125 155.421875 122.957031 155.425781 122.960938 C 155.433594 122.964844 155.4375 122.964844 155.445312 122.964844 L 155.78125 122.886719 C 155.785156 122.882812 155.789062 122.882812 155.792969 122.875 C 155.796875 122.871094 155.796875 122.863281 155.796875 122.859375 L 155.554688 121.824219 C 155.53125 121.734375 155.546875 121.640625 155.59375 121.5625 C 155.644531 121.484375 155.722656 121.429688 155.808594 121.410156 L 156.117188 121.335938 C 156.046875 121.234375 155.957031 121.148438 155.847656 121.082031 C 155.640625 120.953125 155.390625 120.914062 155.152344 120.96875 C 154.910156 121.027344 154.707031 121.171875 154.578125 121.382812 C 154.511719 121.488281 154.46875 121.605469 154.449219 121.726562 Z M 154.449219 121.726562 " fill-opacity="1" fill-rule="nonzero"/></g></g></g><g clip-path="url(#7b6b3f9e25)"><g clip-path="url(#6d95b3674c)"><g clip-path="url(#950179475a)"><path fill="#ffffff" d="M 154.367188 105.304688 C 154.277344 105.390625 154.167969 105.449219 154.042969 105.480469 L 153.707031 105.558594 C 153.324219 105.648438 152.941406 105.410156 152.851562 105.027344 L 152.6875 104.328125 L 152.3125 104.417969 C 152.226562 104.4375 152.132812 104.421875 152.054688 104.375 C 151.976562 104.324219 151.921875 104.25 151.898438 104.160156 C 151.695312 103.292969 152.234375 102.421875 153.097656 102.21875 C 153.519531 102.121094 153.949219 102.191406 154.316406 102.417969 C 154.683594 102.644531 154.941406 103 155.039062 103.421875 C 155.082031 103.605469 154.96875 103.792969 154.78125 103.835938 L 154.410156 103.921875 L 154.574219 104.621094 C 154.617188 104.808594 154.585938 104.996094 154.484375 105.160156 C 154.453125 105.214844 154.414062 105.261719 154.367188 105.304688 Z M 152.554688 103.648438 L 152.863281 103.578125 C 153.050781 103.535156 153.234375 103.648438 153.277344 103.835938 L 153.523438 104.871094 C 153.523438 104.882812 153.539062 104.890625 153.550781 104.886719 L 153.886719 104.808594 C 153.890625 104.804688 153.894531 104.804688 153.898438 104.796875 C 153.902344 104.792969 153.902344 104.785156 153.902344 104.78125 L 153.660156 103.746094 C 153.617188 103.558594 153.730469 103.375 153.914062 103.332031 L 154.222656 103.257812 C 154.152344 103.15625 154.0625 103.070312 153.953125 103.003906 C 153.746094 102.875 153.496094 102.835938 153.257812 102.890625 C 152.878906 102.980469 152.613281 103.289062 152.554688 103.648438 Z M 152.554688 103.648438 " fill-opacity="1" fill-rule="nonzero"/></g></g></g><g clip-path="url(#5461c0aab4)"><g clip-path="url(#6689b200c7)"><g clip-path="url(#5a1d28acd0)"><path fill="#ffffff" d="M 154.347656 111.316406 C 153.917969 111.722656 153.238281 111.699219 152.832031 111.269531 C 152.425781 110.839844 152.449219 110.160156 152.878906 109.753906 C 153.308594 109.351562 153.988281 109.371094 154.394531 109.800781 C 154.800781 110.230469 154.777344 110.910156 154.347656 111.316406 Z M 153.351562 110.257812 C 153.199219 110.402344 153.191406 110.644531 153.335938 110.796875 C 153.480469 110.953125 153.722656 110.957031 153.875 110.8125 C 154.027344 110.671875 154.035156 110.425781 153.890625 110.273438 C 153.746094 110.121094 153.503906 110.113281 153.351562 110.257812 Z M 153.351562 110.257812 " fill-opacity="1" fill-rule="nonzero"/></g></g></g><g clip-path="url(#8ddd7573bc)"><g clip-path="url(#5ba27a417f)"><g clip-path="url(#ee498b3e12)"><path fill="#ffffff" d="M 148.789062 115.320312 C 148.359375 115.726562 147.679688 115.703125 147.273438 115.273438 C 146.867188 114.84375 146.890625 114.164062 147.320312 113.757812 C 147.75 113.355469 148.429688 113.375 148.835938 113.804688 C 149.242188 114.234375 149.21875 114.914062 148.789062 115.320312 Z M 147.792969 114.261719 C 147.640625 114.40625 147.632812 114.648438 147.777344 114.800781 C 147.921875 114.953125 148.164062 114.960938 148.316406 114.816406 C 148.46875 114.671875 148.476562 114.429688 148.332031 114.277344 C 148.1875 114.125 147.945312 114.117188 147.792969 114.261719 Z M 147.792969 114.261719 " fill-opacity="1" fill-rule="nonzero"/></g></g></g><g clip-path="url(#8e911e9c80)"><g clip-path="url(#2b1d91613e)"><g clip-path="url(#e0f36d8a93)"><path fill="#ffffff" d="M 163.625 115.59375 C 163.195312 116 162.515625 115.980469 162.109375 115.550781 C 161.707031 115.117188 161.726562 114.4375 162.15625 114.035156 C 162.585938 113.628906 163.265625 113.648438 163.671875 114.082031 C 164.078125 114.511719 164.058594 115.191406 163.625 115.59375 Z M 162.628906 114.535156 C 162.476562 114.679688 162.46875 114.921875 162.613281 115.078125 C 162.757812 115.230469 163 115.238281 163.152344 115.09375 C 163.308594 114.949219 163.316406 114.707031 163.171875 114.554688 C 163.027344 114.398438 162.785156 114.390625 162.628906 114.535156 Z M 162.628906 114.535156 " fill-opacity="1" fill-rule="nonzero"/></g></g></g><g clip-path="url(#d533c0cd3e)"><g clip-path="url(#ba005f6eb9)"><g clip-path="url(#95f01f785e)"><path fill="#ffffff" d="M 168.472656 110.898438 C 168.042969 111.304688 167.363281 111.28125 166.957031 110.851562 C 166.550781 110.421875 166.570312 109.742188 167.003906 109.335938 C 167.433594 108.933594 168.113281 108.953125 168.519531 109.382812 C 168.921875 109.8125 168.902344 110.492188 168.472656 110.898438 Z M 167.476562 109.839844 C 167.320312 109.984375 167.316406 110.226562 167.457031 110.378906 C 167.601562 110.535156 167.84375 110.539062 168 110.394531 C 168.152344 110.25 168.160156 110.007812 168.015625 109.855469 C 167.871094 109.703125 167.628906 109.695312 167.476562 109.839844 Z M 167.476562 109.839844 " fill-opacity="1" fill-rule="nonzero"/></g></g></g><g clip-path="url(#23f2ec7d8d)"><g clip-path="url(#bbed0bb0d5)"><g clip-path="url(#129d07bbb5)"><path fill="#ffffff" d="M 164.851562 104.753906 C 164.421875 105.160156 163.742188 105.140625 163.335938 104.710938 C 162.933594 104.277344 162.953125 103.597656 163.382812 103.195312 C 163.8125 102.789062 164.492188 102.808594 164.898438 103.242188 C 165.304688 103.671875 165.28125 104.351562 164.851562 104.753906 Z M 163.855469 103.695312 C 163.703125 103.839844 163.695312 104.082031 163.839844 104.238281 C 163.984375 104.390625 164.226562 104.398438 164.378906 104.253906 C 164.53125 104.109375 164.539062 103.867188 164.394531 103.714844 C 164.25 103.558594 164.007812 103.550781 163.855469 103.695312 Z M 163.855469 103.695312 " fill-opacity="1" fill-rule="nonzero"/></g></g></g><g clip-path="url(#c03fd53c02)"><g clip-path="url(#aa444e44b1)"><g clip-path="url(#7dd08badd0)"><path fill="#ffffff" d="M 167.003906 108.023438 C 166.917969 108.105469 166.792969 108.140625 166.671875 108.105469 C 166.488281 108.050781 166.382812 107.859375 166.4375 107.675781 L 166.863281 106.195312 C 166.914062 106.015625 167.105469 105.90625 167.289062 105.960938 C 167.472656 106.011719 167.578125 106.203125 167.527344 106.386719 L 167.101562 107.867188 C 167.082031 107.929688 167.046875 107.984375 167.003906 108.023438 Z M 167.003906 108.023438 " fill-opacity="1" fill-rule="nonzero"/></g></g></g><g clip-path="url(#2f7e16f1a7)"><g clip-path="url(#8ceeafbf54)"><g clip-path="url(#ab0a5a8819)"><path fill="#ffffff" d="M 168.425781 116.691406 C 168.339844 116.773438 168.214844 116.808594 168.09375 116.773438 C 167.910156 116.71875 167.804688 116.527344 167.855469 116.34375 L 168.28125 114.863281 C 168.335938 114.679688 168.527344 114.574219 168.707031 114.628906 C 168.890625 114.679688 168.996094 114.871094 168.945312 115.054688 L 168.519531 116.535156 C 168.5 116.597656 168.46875 116.648438 168.425781 116.691406 Z M 168.425781 116.691406 " fill-opacity="1" fill-rule="nonzero"/></g></g></g><g fill="#ffffff" fill-opacity="1"><g transform="translate(28.812564, 129.378645)"><g><path d="M 0 0 L 20.675781 0 C 31.871094 0 37.804688 -5.730469 37.804688 -13.308594 C 37.804688 -20.675781 32.824219 -25.523438 25.453125 -26.75 C 31.324219 -29.683594 36.851562 -32.960938 36.851562 -40.332031 C 36.851562 -46.132812 31.527344 -51.183594 20.675781 -51.183594 L 0 -51.183594 C 0.957031 -48.589844 1.226562 -45.585938 1.226562 -42.105469 C 1.226562 -36.507812 1.226562 -14.671875 1.226562 -9.078125 C 1.226562 -5.597656 0.957031 -2.59375 0 0 Z M 22.996094 -25.589844 C 27.230469 -23.886719 29.957031 -18.835938 29.890625 -14.058594 C 29.890625 -7.78125 25.316406 -2.386719 15.011719 -2.386719 L 9.078125 -2.386719 L 9.078125 -12.078125 C 9.078125 -19.449219 16.992188 -22.589844 22.996094 -25.589844 Z M 9.078125 -48.792969 L 14.945312 -48.792969 C 24.363281 -48.792969 28.933594 -45.109375 28.933594 -40.332031 C 28.933594 -28.59375 14.398438 -27.980469 9.078125 -18.765625 Z M 9.078125 -48.792969 "/></g></g></g><g fill="#ffffff" fill-opacity="1"><g transform="translate(72.280335, 129.378645)"><g><path d="M 7.78125 -8.324219 C 7.78125 -13.921875 7.78125 -19.515625 7.78125 -25.113281 C 7.78125 -28.59375 7.984375 -30.914062 9.007812 -33.4375 C 6.003906 -33.4375 3.003906 -33.4375 0 -33.4375 C 0.957031 -30.914062 1.226562 -28.59375 1.226562 -25.113281 C 1.226562 -19.515625 1.226562 -13.921875 1.226562 -8.324219 C 1.226562 -4.914062 0.957031 -2.59375 0 0 C 3.003906 0 6.003906 0 9.007812 0 C 7.984375 -2.59375 7.78125 -4.914062 7.78125 -8.324219 Z M 4.503906 -42.308594 C 2.660156 -42.308594 1.226562 -40.878906 1.226562 -39.035156 C 1.226562 -37.191406 2.660156 -35.757812 4.503906 -35.757812 C 6.277344 -35.757812 7.78125 -37.191406 7.78125 -39.035156 C 7.78125 -40.878906 6.277344 -42.308594 4.503906 -42.308594 Z M 4.503906 -42.308594 "/></g></g></g><g fill="#ffffff" fill-opacity="1"><g transform="translate(87.019798, 129.378645)"><g><path d="M 9.007812 0 C 7.984375 -2.59375 7.78125 -4.914062 7.78125 -8.324219 L 7.78125 -42.855469 C 7.78125 -46.269531 7.984375 -48.589844 9.007812 -51.183594 C 6.003906 -51.183594 3.003906 -51.183594 0 -51.183594 C 0.957031 -48.589844 1.226562 -46.269531 1.226562 -42.855469 L 1.226562 -8.871094 C 1.226562 -5.597656 1.296875 -2.933594 2.457031 0 Z M 9.007812 0 "/></g></g></g><g fill="#ffffff" fill-opacity="1"><g transform="translate(101.759261, 129.378645)"><g><path d="M 33.847656 -16.789062 C 33.847656 -24.910156 28.59375 -33.4375 19.789062 -33.4375 C 14.875 -33.4375 10.238281 -30.503906 7.78125 -25.453125 L 7.78125 -42.925781 C 7.78125 -46.40625 8.121094 -48.726562 8.941406 -51.183594 C 5.9375 -51.183594 3.003906 -51.183594 0 -51.183594 C 1.023438 -48.726562 1.160156 -46.40625 1.160156 -42.925781 L 1.160156 -8.394531 C 1.160156 -4.914062 1.023438 -2.59375 0 0 L 6.484375 0 C 7.644531 -2.867188 7.78125 -5.664062 7.78125 -8.804688 L 7.78125 -13.714844 C 7.78125 -24.566406 13.308594 -29.957031 18.492188 -29.820312 C 22.996094 -29.820312 27.296875 -25.316406 27.296875 -16.789062 C 27.296875 -10.101562 24.703125 -2.320312 18.628906 -2.320312 C 14.46875 -2.320312 12.148438 -6.824219 11.53125 -9.28125 L 9.078125 -5.9375 C 11.738281 -1.707031 15.492188 0 19.246094 0 C 27.160156 0 33.847656 -6.347656 33.847656 -16.789062 Z M 33.847656 -16.789062 "/></g></g></g><g fill="#ffffff" fill-opacity="1"><g transform="translate(141.40569, 129.378645)"><g><path d="M 16.71875 -33.4375 C 7.507812 -33.4375 0 -25.933594 0 -16.71875 C 0 -7.507812 7.507812 0 16.71875 0 C 25.933594 0 33.4375 -7.507812 33.4375 -16.71875 C 33.4375 -25.933594 25.933594 -33.4375 16.71875 -33.4375 Z M 24.019531 -4.367188 C 19.175781 -1.5 12.011719 -4.707031 7.984375 -11.601562 C 3.957031 -18.425781 4.570312 -26.273438 9.417969 -29.070312 C 14.261719 -31.9375 21.429688 -28.730469 25.453125 -21.90625 C 29.480469 -15.011719 28.867188 -7.164062 24.019531 -4.367188 Z M 24.019531 -4.367188 "/></g></g></g><g fill="#ffffff" fill-opacity="1"><g transform="translate(180.506213, 129.378645)"><g><path d="M 3.957031 -51.183594 C 1.773438 -51.183594 0 -49.40625 0 -47.222656 C 0 -45.039062 1.84375 -43.265625 4.027344 -43.265625 C 2.660156 -42.582031 1.296875 -42.308594 1.296875 -42.308594 L 3.070312 -40.125 C 5.050781 -41.492188 7.984375 -44.5625 7.917969 -47.222656 C 7.847656 -49.40625 6.140625 -51.183594 3.957031 -51.183594 Z M 3.957031 -51.183594 "/></g></g></g><g fill="#ffffff" fill-opacity="1"><g transform="translate(194.222105, 129.378645)"><g><path d="M 0 -24.5 C 0.136719 -16.71875 14.808594 -14.398438 22.179688 -10.441406 C 26.476562 -8.121094 28.730469 -4.230469 22.179688 -2.730469 C 20.199219 -2.253906 17.949219 -2.320312 16.445312 -2.59375 C 12.148438 -3.34375 8.050781 -5.800781 4.707031 -8.53125 L 0 -1.980469 C 4.503906 -0.957031 11.328125 0 17.402344 0 C 25.660156 0 30.574219 -4.027344 30.503906 -8.941406 C 30.367188 -17.332031 13.375 -19.382812 6.6875 -23.953125 C 2.933594 -26.546875 3.414062 -29.617188 8.257812 -30.710938 C 10.238281 -31.1875 12.488281 -31.117188 14.058594 -30.84375 C 18.355469 -30.09375 22.453125 -27.636719 25.796875 -24.910156 L 30.503906 -31.460938 C 26 -32.484375 19.109375 -33.4375 13.101562 -33.4375 C 4.84375 -33.4375 -0.0664062 -29.414062 0 -24.5 Z M 0 -24.5 "/></g></g></g><g fill="#ffffff" fill-opacity="1"><g transform="translate(230.66134, 129.378645)"><g/></g></g><g fill="#ffffff" fill-opacity="1"><g transform="translate(254.203529, 129.378645)"><g><path d="M 20.199219 -51.183594 L 0 -51.183594 C 0.957031 -48.589844 1.226562 -45.585938 1.226562 -42.105469 C 1.226562 -36.507812 1.226562 -14.671875 1.226562 -9.078125 C 1.226562 -5.597656 0.957031 -2.59375 0 0 C 3.003906 0 7.300781 0 10.304688 0 C 9.347656 -2.59375 9.078125 -5.597656 9.078125 -9.078125 L 9.078125 -10.507812 C 9.078125 -26.886719 36.851562 -23.953125 36.851562 -40.332031 C 36.851562 -46.269531 31.597656 -51.183594 20.199219 -51.183594 Z M 9.078125 -18.699219 L 9.078125 -48.792969 L 13.171875 -48.792969 C 21.359375 -48.792969 28.730469 -46.949219 28.933594 -40.671875 C 29.34375 -30.164062 14.808594 -28.390625 9.078125 -18.699219 Z M 9.078125 -18.699219 "/></g></g></g><g fill="#ffffff" fill-opacity="1"><g transform="translate(296.715948, 129.378645)"><g><path d="M 7.78125 -8.324219 C 7.78125 -13.921875 7.78125 -19.515625 7.78125 -25.113281 C 7.78125 -28.59375 7.984375 -30.914062 9.007812 -33.4375 C 6.003906 -33.4375 3.003906 -33.4375 0 -33.4375 C 0.957031 -30.914062 1.226562 -28.59375 1.226562 -25.113281 C 1.226562 -19.515625 1.226562 -13.921875 1.226562 -8.324219 C 1.226562 -4.914062 0.957031 -2.59375 0 0 C 3.003906 0 6.003906 0 9.007812 0 C 7.984375 -2.59375 7.78125 -4.914062 7.78125 -8.324219 Z M 4.503906 -42.308594 C 2.660156 -42.308594 1.226562 -40.878906 1.226562 -39.035156 C 1.226562 -37.191406 2.660156 -35.757812 4.503906 -35.757812 C 6.277344 -35.757812 7.78125 -37.191406 7.78125 -39.035156 C 7.78125 -40.878906 6.277344 -42.308594 4.503906 -42.308594 Z M 4.503906 -42.308594 "/></g></g></g><g fill="#ffffff" fill-opacity="1"><g transform="translate(311.455411, 129.378645)"><g><path d="M 30.027344 -33.4375 C 19.859375 -33.4375 11.191406 -33.4375 1.023438 -33.4375 L 1.023438 -26.886719 C 3.207031 -29.140625 6.890625 -31.050781 10.101562 -31.050781 L 20.472656 -31.050781 L -0.410156 0 C 9.757812 0 18.425781 0 28.59375 0 L 28.59375 -6.550781 C 26.476562 -4.300781 22.726562 -2.386719 19.585938 -2.386719 L 9.078125 -2.386719 Z M 30.027344 -33.4375 "/></g></g></g><g fill="#ffffff" fill-opacity="1"><g transform="translate(347.144016, 129.378645)"><g><path d="M 30.027344 -33.4375 C 19.859375 -33.4375 11.191406 -33.4375 1.023438 -33.4375 L 1.023438 -26.886719 C 3.207031 -29.140625 6.890625 -31.050781 10.101562 -31.050781 L 20.472656 -31.050781 L -0.410156 0 C 9.757812 0 18.425781 0 28.59375 0 L 28.59375 -6.550781 C 26.476562 -4.300781 22.726562 -2.386719 19.585938 -2.386719 L 9.078125 -2.386719 Z M 30.027344 -33.4375 "/></g></g></g><g fill="#ffffff" fill-opacity="1"><g transform="translate(382.83262, 129.378645)"><g><path d="M 30.4375 -8.324219 C 30.4375 -11.941406 30.4375 -19.652344 30.4375 -24.226562 C 30.4375 -32.484375 24.089844 -33.4375 17.402344 -33.4375 C 11.328125 -33.4375 4.503906 -32.484375 0 -31.460938 L 4.707031 -24.910156 C 8.597656 -28.117188 13.648438 -30.980469 18.835938 -31.050781 C 26.136719 -31.1875 25.179688 -22.109375 18.425781 -20.40625 C 15.902344 -19.789062 13.171875 -20.335938 10.507812 -20.40625 C 4.300781 -20.539062 0 -16.582031 0 -10.238281 C 0 -3.546875 4.777344 0 10.167969 0 C 15.832031 0 22.042969 -3.957031 23.886719 -12.011719 L 23.886719 -9.007812 C 23.886719 -5.664062 23.953125 -2.933594 25.113281 0 L 31.664062 0 C 30.710938 -2.59375 30.4375 -4.914062 30.4375 -8.324219 Z M 12.691406 -3.617188 C 5.117188 -3.414062 3.617188 -16.035156 13.785156 -17.46875 C 17.332031 -17.949219 22.109375 -18.085938 23.886719 -21.566406 C 23.269531 -15.421875 20.746094 -3.820312 12.691406 -3.617188 Z M 12.691406 -3.617188 "/></g></g></g></svg>